<svg xmlns="http://www.w3.org/2000/svg" xmlns:xlink="http://www.w3.org/1999/xlink"><symbol id="call-mini" viewBox="0 0 114 114">
<style type="text/css">
	.st0{fill:#226377;}
</style>
<path class="st0" d="M89.9,74.2l-9.7-9.7c-1.9-1.9-5-1.9-6.9,0L69.7,68c-1.2,1.2-2.6,2.5-4.5,2.5c-1,0-1.9-0.4-2.6-0.9c0,0,0,0,0,0
	L44.3,51.4l0,0c-0.5-0.8-0.9-1.7-0.9-2.6c0-1.9,1.4-3.3,2.5-4.5l3.6-3.6c1.9-1.9,1.9-5,0-6.9L39.8,24c-1.9-1.9-5-1.9-6.9,0L26.9,30
	c-5.7,5.7-5.7,15.1,0,20.8l0.2,0.2l2.6,2.6l30.7,30.7l2.8,2.8l1.8,1.8c0.2,0.1,1,1,2.8,1.6c5,1.9,11.9,0.9,16.2-3.4l5.9-5.9
	C91.8,79.2,91.8,76.1,89.9,74.2z"/>
</symbol><symbol id="gps-mini" viewBox="0 0 114 114">
<style type="text/css">
	.st0{fill:#226377;}
</style>
<path class="st0" d="M57,22.6c-13.9,0-25.2,11.3-25.2,25.2C31.8,61.8,57,91.4,57,91.4s25.2-29.6,25.2-43.6
	C82.2,33.9,70.9,22.6,57,22.6z M57,63.1c-8.6,0-15.6-7-15.6-15.6s7-15.6,15.6-15.6c8.6,0,15.6,7,15.6,15.6S65.6,63.1,57,63.1z"/>
</symbol><symbol id="man-mini" viewBox="0 0 114 114">
<style type="text/css">
	.st0{fill:#226377;}
</style>
<ellipse class="st0" cx="56.1" cy="43.5" rx="18.2" ry="20.7"/>
<path class="st0" d="M67.3,66.2C67.3,66.2,67.3,66.2,67.3,66.2c0,0-2,6-11.2,6s-11.2-5.8-11.2-5.8c-11.4,3.8-19.4,13.2-19.4,24.1
	c0,0.3,0,0.5,0,0.8h10.2v-1.8c0-4,3.5-7.3,5-7.3h0.2c0.7,0,0.4,2.3,0.3,6.7v2.3h30.6V89c-0.1-4.5-0.4-6.7,0.3-6.7h0.2
	c1.5,0,5,3.3,5,7.3v1.8h10.2c0-0.3,0-0.5,0-0.8C87.5,79.3,79.1,69.8,67.3,66.2z"/>
</symbol></svg>