<?xml version="1.0" encoding="utf-8"?>
<!-- Generator: Adobe Illustrator 21.0.0, SVG Export Plug-In . SVG Version: 6.00 Build 0)  -->
<svg version="1.1" id="uservisible-str__sublink--imgcall" xmlns="http://www.w3.org/2000/svg" xmlns:xlink="http://www.w3.org/1999/xlink" x="0px" y="0px"
	 viewBox="0 0 114 114" style="enable-background:new 0 0 114 114;" xml:space="preserve">
<style type="text/css">
	.st0{fill:#226377;}
</style>
<path class="st0" d="M89.9,74.2l-9.7-9.7c-1.9-1.9-5-1.9-6.9,0L69.7,68c-1.2,1.2-2.6,2.5-4.5,2.5c-1,0-1.9-0.4-2.6-0.9c0,0,0,0,0,0
	L44.3,51.4l0,0c-0.5-0.8-0.9-1.7-0.9-2.6c0-1.9,1.4-3.3,2.5-4.5l3.6-3.6c1.9-1.9,1.9-5,0-6.9L39.8,24c-1.9-1.9-5-1.9-6.9,0L26.9,30
	c-5.7,5.7-5.7,15.1,0,20.8l0.2,0.2l2.6,2.6l30.7,30.7l2.8,2.8l1.8,1.8c0.2,0.1,1,1,2.8,1.6c5,1.9,11.9,0.9,16.2-3.4l5.9-5.9
	C91.8,79.2,91.8,76.1,89.9,74.2z"/>
</svg>
