<?xml version="1.0" encoding="utf-8"?>
<!-- Generator: Adobe Illustrator 21.0.0, SVG Export Plug-In . SVG Version: 6.00 Build 0)  -->
<svg version="1.1" id="uservisible-str__sublink--imgman" xmlns="http://www.w3.org/2000/svg" xmlns:xlink="http://www.w3.org/1999/xlink" x="0px" y="0px"
	 viewBox="0 0 114 114" style="enable-background:new 0 0 114 114;" xml:space="preserve">
<style type="text/css">
	.st0{fill:#226377;}
</style>
<ellipse class="st0" cx="56.1" cy="43.5" rx="18.2" ry="20.7"/>
<path class="st0" d="M67.3,66.2C67.3,66.2,67.3,66.2,67.3,66.2c0,0-2,6-11.2,6s-11.2-5.8-11.2-5.8c-11.4,3.8-19.4,13.2-19.4,24.1
	c0,0.3,0,0.5,0,0.8h10.2v-1.8c0-4,3.5-7.3,5-7.3h0.2c0.7,0,0.4,2.3,0.3,6.7v2.3h30.6V89c-0.1-4.5-0.4-6.7,0.3-6.7h0.2
	c1.5,0,5,3.3,5,7.3v1.8h10.2c0-0.3,0-0.5,0-0.8C87.5,79.3,79.1,69.8,67.3,66.2z"/>
</svg>
